<svg width="26" height="26" viewBox="0 0 26 26" fill="none" xmlns="http://www.w3.org/2000/svg">
<rect width="26" height="26" rx="13" fill="#808080"/>
<path d="M5 7C5 7 5.89543 7 7 7H19C20.1046 7 21 7 21 7V17C21 18.1046 21 19 21 19H5C5 19 5 18.1046 5 17V7ZM6 8C6 8 6 8.44772 6 9V9.2169L13 13.4169L20 9.2169V9C20 8.44772 20 8 20 8H6ZM20 10.3831L15.2919 13.2079L20 16.1052V10.3831ZM19.9662 17.2586L14.3258 13.7876L13 14.5831L11.6742 13.7876L6.03376 17.2586V17.991L19.9662 18.009V17.2586ZM6 16.1052L10.7081 13.2079L6 10.3831V16.1052Z" fill="white"/>
</svg>