<svg width="99" height="66" viewBox="0 0 99 66" fill="none" xmlns="http://www.w3.org/2000/svg">
<g clip-path="url(#clip0_4578_1042)">
<path d="M70.8442 0C62.7456 0 57.1572 2.97264 49.4783 13.1571C42.2041 3.53826 36.29 0 28.2743 0C12.221 0 0 19.6469 0 43.1693C0 57.319 7.96641 65.34 18.7142 65.34C29.0724 65.34 35.3412 56.628 40.721 46.9999L47.0792 36.0043C47.7003 34.9304 48.3261 33.8592 48.9565 32.7908C49.6638 33.9793 50.3661 35.1709 51.0634 36.3653L57.4217 47.225C65.5842 61.1952 71.1469 65.34 80.5721 65.34C91.3949 65.34 98.7441 56.2828 98.7441 43.395C98.7441 18.6107 86.1309 0 70.8442 0ZM38.0153 30.6874L31.5669 41.4124C25.2534 51.9565 22.5924 54.2995 18.624 54.2995C14.4306 54.2995 11.1386 50.785 11.1386 42.7185C11.1386 26.5419 19.0754 11.4008 28.2743 11.4008C33.0599 11.4008 36.6164 13.7834 42.7911 22.9416C41.1668 25.5033 39.5747 28.0854 38.0153 30.6874ZM80.33 54.2995C75.9556 54.2995 73.0696 51.5057 67.1621 41.5021L60.8038 30.6874C58.968 27.5609 57.2493 24.721 55.6188 22.1437C62.0211 12.7453 65.8776 10.2742 70.7541 10.2742C80.0437 10.2742 87.9963 24.1078 87.9963 42.7185C87.9963 50.2445 84.8846 54.2995 80.33 54.2995Z" fill="#0180FA"/>
<path d="M95.8256 23.76H84.7981C86.8017 29.011 87.9967 35.506 87.9967 42.7185C87.9967 50.2445 84.885 54.2995 80.3303 54.2995H80.2764V65.3387L80.5718 65.34C91.3946 65.34 98.7438 56.2828 98.7438 43.395C98.7438 36.234 97.691 29.5898 95.8256 23.76Z" fill="url(#paint0_linear_4578_1042)"/>
<path d="M27.6361 0.0107422C12.2587 0.512342 0.547587 19.0795 0.0185547 41.5802H11.1519C11.5039 26.2127 18.9255 12.0881 27.6361 11.4248V0.0107422Z" fill="url(#paint1_linear_4578_1042)"/>
<path d="M49.4781 13.1571L49.4827 13.1512C51.0928 15.2783 52.9464 17.9223 55.6218 22.1404L55.6185 22.1437C57.249 24.7216 58.9677 27.5609 60.8035 30.6874L67.1618 41.5021C73.0693 51.5057 75.9553 54.2995 80.3297 54.2995C80.5337 54.2995 80.7357 54.2916 80.9337 54.2751V65.3367C80.8133 65.3387 80.6923 65.34 80.5712 65.34C71.1466 65.34 65.5839 61.1945 57.4214 47.225L51.0632 36.366L50.6519 35.6631L50.6657 35.64C49.0958 32.8845 45.661 27.2679 42.7875 22.9469L42.7908 22.9416L42.3828 22.341C41.5544 21.1088 40.7859 20.0066 40.1377 19.14L40.0943 19.1558C35.4844 13.1023 32.3181 11.4008 28.274 11.4008C28.0608 11.4008 27.8476 11.4088 27.6357 11.4253V0.01056C27.8476 0.00396 28.0608 0 28.274 0C36.2898 0 42.2039 3.5376 49.4781 13.1571Z" fill="url(#paint2_linear_4578_1042)"/>
</g>
<defs>
<linearGradient id="paint0_linear_4578_1042" x1="81.8424" y1="65.34" x2="105.911" y2="39.228" gradientUnits="userSpaceOnUse">
<stop offset="0.427" stop-color="#0278F1"/>
<stop offset="0.917" stop-color="#0180FA"/>
</linearGradient>
<linearGradient id="paint1_linear_4578_1042" x1="27.6361" y1="3.25794" x2="-1.20576" y2="40.6422" gradientUnits="userSpaceOnUse">
<stop offset="0.427" stop-color="#0165E0"/>
<stop offset="0.917" stop-color="#0180FA"/>
</linearGradient>
<linearGradient id="paint2_linear_4578_1042" x1="18.2112" y1="18.9486" x2="87.5348" y2="46.792" gradientUnits="userSpaceOnUse">
<stop stop-color="#0064E0"/>
<stop offset="0.656" stop-color="#0066E2"/>
<stop offset="1" stop-color="#0278F1"/>
</linearGradient>
<clipPath id="clip0_4578_1042">
<rect width="99" height="66" fill="white"/>
</clipPath>
</defs>
</svg>
